<mxfile host="app.diagrams.net" agent="Mozilla/5.0 (Macintosh; Intel Mac OS X 10_15_7) AppleWebKit/537.36 (KHTML, like Gecko) Chrome/139.0.0.0 Safari/537.36" version="28.1.0">
  <diagram name="Page-1" id="KUcplEUkCT5wZGvrJ8Br">
    <mxGraphModel dx="1361" dy="875" grid="1" gridSize="10" guides="1" tooltips="1" connect="1" arrows="1" fold="1" page="1" pageScale="1" pageWidth="850" pageHeight="1100" math="0" shadow="0">
      <root>
        <mxCell id="0" />
        <mxCell id="1" parent="0" />
        <mxCell id="N1mBAuWXCPxK_z9myF4u-12" value="" style="rounded=0;whiteSpace=wrap;html=1;" parent="1" vertex="1">
          <mxGeometry x="160" y="120" width="190" height="460" as="geometry" />
        </mxCell>
        <mxCell id="N1mBAuWXCPxK_z9myF4u-17" value="&lt;span style=&quot;color: rgb(0, 0, 0); background-color: rgb(255, 255, 255);&quot;&gt;audit-log-bronze/app1&lt;/span&gt;" style="outlineConnect=0;dashed=0;verticalLabelPosition=bottom;verticalAlign=top;align=center;html=1;shape=mxgraph.aws3.bucket;fillColor=#a0522d;fontColor=#ffffff;strokeColor=#6D1F00;fontSize=16;" parent="1" vertex="1">
          <mxGeometry x="220" y="160" width="60" height="61.5" as="geometry" />
        </mxCell>
        <mxCell id="N1mBAuWXCPxK_z9myF4u-18" value="&lt;span style=&quot;color: rgb(0, 0, 0); background-color: rgb(255, 255, 255);&quot;&gt;audit-log-silver/app1&lt;/span&gt;" style="outlineConnect=0;dashed=0;verticalLabelPosition=bottom;verticalAlign=top;align=center;html=1;shape=mxgraph.aws3.bucket;fillColor=#f5f5f5;strokeColor=#666666;gradientColor=#b3b3b3;fontSize=16;" parent="1" vertex="1">
          <mxGeometry x="220" y="260" width="60" height="61.5" as="geometry" />
        </mxCell>
        <mxCell id="N1mBAuWXCPxK_z9myF4u-19" value="&lt;span style=&quot;color: rgb(0, 0, 0); background-color: rgb(255, 255, 255);&quot;&gt;audit-log-bronze/app2&lt;/span&gt;" style="outlineConnect=0;dashed=0;verticalLabelPosition=bottom;verticalAlign=top;align=center;html=1;shape=mxgraph.aws3.bucket;fillColor=#a0522d;fontColor=#ffffff;strokeColor=#6D1F00;fontSize=16;" parent="1" vertex="1">
          <mxGeometry x="220" y="370" width="60" height="61.5" as="geometry" />
        </mxCell>
        <mxCell id="N1mBAuWXCPxK_z9myF4u-20" value="&lt;span style=&quot;color: rgb(0, 0, 0); background-color: rgb(255, 255, 255);&quot;&gt;audit-log-silver/app2&lt;/span&gt;" style="outlineConnect=0;dashed=0;verticalLabelPosition=bottom;verticalAlign=top;align=center;html=1;shape=mxgraph.aws3.bucket;fillColor=#f5f5f5;strokeColor=#666666;gradientColor=#b3b3b3;fontSize=16;" parent="1" vertex="1">
          <mxGeometry x="220" y="469.25" width="60" height="61.5" as="geometry" />
        </mxCell>
        <mxCell id="N1mBAuWXCPxK_z9myF4u-21" value="S3" style="text;html=1;align=center;verticalAlign=middle;whiteSpace=wrap;rounded=0;fontSize=16;" parent="1" vertex="1">
          <mxGeometry x="300" y="120" width="60" height="30" as="geometry" />
        </mxCell>
        <mxCell id="N1mBAuWXCPxK_z9myF4u-23" value="" style="rounded=0;whiteSpace=wrap;html=1;" parent="1" vertex="1">
          <mxGeometry x="425" y="120" width="195" height="460" as="geometry" />
        </mxCell>
        <mxCell id="N1mBAuWXCPxK_z9myF4u-24" value="Databricks" style="text;html=1;align=center;verticalAlign=middle;whiteSpace=wrap;rounded=0;fontSize=16;" parent="1" vertex="1">
          <mxGeometry x="540" y="120" width="60" height="30" as="geometry" />
        </mxCell>
        <mxCell id="N1mBAuWXCPxK_z9myF4u-36" value="" style="edgeStyle=orthogonalEdgeStyle;rounded=0;orthogonalLoop=1;jettySize=auto;html=1;" parent="1" source="N1mBAuWXCPxK_z9myF4u-25" target="N1mBAuWXCPxK_z9myF4u-33" edge="1">
          <mxGeometry relative="1" as="geometry" />
        </mxCell>
        <mxCell id="N1mBAuWXCPxK_z9myF4u-25" value="&lt;font style=&quot;color: rgb(0, 0, 0);&quot;&gt;app1 bronze table&lt;/font&gt;" style="shape=datastore;html=1;fillColor=#a0522d;fontColor=#ffffff;strokeColor=#6D1F00;labelPosition=center;verticalLabelPosition=bottom;align=center;verticalAlign=top;fontSize=16;" parent="1" vertex="1">
          <mxGeometry x="490" y="161.5" width="65" height="60" as="geometry" />
        </mxCell>
        <mxCell id="N1mBAuWXCPxK_z9myF4u-33" value="&lt;font style=&quot;color: rgb(0, 0, 0);&quot;&gt;app1 silver table&lt;/font&gt;" style="shape=datastore;html=1;fillColor=#f5f5f5;strokeColor=#666666;labelPosition=center;verticalLabelPosition=bottom;align=center;verticalAlign=top;gradientColor=#b3b3b3;fontSize=16;" parent="1" vertex="1">
          <mxGeometry x="490" y="261.5" width="65" height="60" as="geometry" />
        </mxCell>
        <mxCell id="N1mBAuWXCPxK_z9myF4u-37" value="" style="edgeStyle=orthogonalEdgeStyle;rounded=0;orthogonalLoop=1;jettySize=auto;html=1;" parent="1" source="N1mBAuWXCPxK_z9myF4u-34" target="N1mBAuWXCPxK_z9myF4u-35" edge="1">
          <mxGeometry relative="1" as="geometry" />
        </mxCell>
        <mxCell id="N1mBAuWXCPxK_z9myF4u-34" value="&lt;font style=&quot;color: rgb(0, 0, 0);&quot;&gt;app2 bronze table&lt;/font&gt;" style="shape=datastore;html=1;fillColor=#a0522d;fontColor=#ffffff;strokeColor=#6D1F00;labelPosition=center;verticalLabelPosition=bottom;align=center;verticalAlign=top;fontSize=16;" parent="1" vertex="1">
          <mxGeometry x="490" y="370" width="65" height="60" as="geometry" />
        </mxCell>
        <mxCell id="N1mBAuWXCPxK_z9myF4u-35" value="&lt;font style=&quot;color: rgb(0, 0, 0);&quot;&gt;app2 silver table&lt;/font&gt;" style="shape=datastore;html=1;fillColor=#f5f5f5;strokeColor=#666666;labelPosition=center;verticalLabelPosition=bottom;align=center;verticalAlign=top;gradientColor=#b3b3b3;fontSize=16;" parent="1" vertex="1">
          <mxGeometry x="490" y="470" width="65" height="60" as="geometry" />
        </mxCell>
        <mxCell id="N1mBAuWXCPxK_z9myF4u-38" value="app1" style="rounded=0;whiteSpace=wrap;html=1;fontSize=16;" parent="1" vertex="1">
          <mxGeometry x="30" y="161.5" width="80" height="58.5" as="geometry" />
        </mxCell>
        <mxCell id="N1mBAuWXCPxK_z9myF4u-39" value="app2" style="rounded=0;whiteSpace=wrap;html=1;fontSize=16;" parent="1" vertex="1">
          <mxGeometry x="30" y="371.5" width="80" height="58.5" as="geometry" />
        </mxCell>
        <mxCell id="N1mBAuWXCPxK_z9myF4u-48" value="" style="endArrow=classic;html=1;rounded=0;exitX=1;exitY=0.5;exitDx=0;exitDy=0;entryX=0.06;entryY=0.5;entryDx=0;entryDy=0;entryPerimeter=0;" parent="1" source="N1mBAuWXCPxK_z9myF4u-38" target="N1mBAuWXCPxK_z9myF4u-17" edge="1">
          <mxGeometry width="50" height="50" relative="1" as="geometry">
            <mxPoint x="150" y="191.25" as="sourcePoint" />
            <mxPoint x="220" y="190" as="targetPoint" />
          </mxGeometry>
        </mxCell>
        <mxCell id="N1mBAuWXCPxK_z9myF4u-49" value="" style="endArrow=classic;html=1;rounded=0;exitX=0.94;exitY=0.5;exitDx=0;exitDy=0;entryX=0;entryY=0.5;entryDx=0;entryDy=0;exitPerimeter=0;" parent="1" source="N1mBAuWXCPxK_z9myF4u-17" target="N1mBAuWXCPxK_z9myF4u-25" edge="1">
          <mxGeometry width="50" height="50" relative="1" as="geometry">
            <mxPoint x="320" y="192" as="sourcePoint" />
            <mxPoint x="430" y="191" as="targetPoint" />
          </mxGeometry>
        </mxCell>
        <mxCell id="N1mBAuWXCPxK_z9myF4u-50" value="Injest" style="edgeLabel;html=1;align=center;verticalAlign=middle;resizable=0;points=[];fontSize=15;" parent="N1mBAuWXCPxK_z9myF4u-49" vertex="1" connectable="0">
          <mxGeometry x="-0.0204" y="2" relative="1" as="geometry">
            <mxPoint x="-1" y="2" as="offset" />
          </mxGeometry>
        </mxCell>
        <mxCell id="N1mBAuWXCPxK_z9myF4u-51" value="" style="endArrow=classic;html=1;rounded=0;exitX=0.94;exitY=0.5;exitDx=0;exitDy=0;exitPerimeter=0;" parent="1" source="N1mBAuWXCPxK_z9myF4u-19" edge="1">
          <mxGeometry width="50" height="50" relative="1" as="geometry">
            <mxPoint x="320" y="401" as="sourcePoint" />
            <mxPoint x="490" y="401" as="targetPoint" />
          </mxGeometry>
        </mxCell>
        <mxCell id="N1mBAuWXCPxK_z9myF4u-52" value="Injest" style="edgeLabel;html=1;align=center;verticalAlign=middle;resizable=0;points=[];fontSize=15;" parent="N1mBAuWXCPxK_z9myF4u-51" vertex="1" connectable="0">
          <mxGeometry x="-0.0204" y="2" relative="1" as="geometry">
            <mxPoint x="-1" y="1" as="offset" />
          </mxGeometry>
        </mxCell>
        <mxCell id="N1mBAuWXCPxK_z9myF4u-53" value="" style="endArrow=classic;html=1;rounded=0;exitX=0;exitY=0.5;exitDx=0;exitDy=0;" parent="1" source="N1mBAuWXCPxK_z9myF4u-33" target="N1mBAuWXCPxK_z9myF4u-18" edge="1">
          <mxGeometry width="50" height="50" relative="1" as="geometry">
            <mxPoint x="440" y="270" as="sourcePoint" />
            <mxPoint x="680" y="270" as="targetPoint" />
          </mxGeometry>
        </mxCell>
        <mxCell id="N1mBAuWXCPxK_z9myF4u-54" value="Save" style="edgeLabel;html=1;align=center;verticalAlign=middle;resizable=0;points=[];fontSize=15;" parent="N1mBAuWXCPxK_z9myF4u-53" vertex="1" connectable="0">
          <mxGeometry x="-0.0204" y="2" relative="1" as="geometry">
            <mxPoint x="-7" y="-2" as="offset" />
          </mxGeometry>
        </mxCell>
        <mxCell id="N1mBAuWXCPxK_z9myF4u-55" value="" style="endArrow=classic;html=1;rounded=0;entryX=0.94;entryY=0.5;entryDx=0;entryDy=0;entryPerimeter=0;" parent="1" target="N1mBAuWXCPxK_z9myF4u-20" edge="1">
          <mxGeometry width="50" height="50" relative="1" as="geometry">
            <mxPoint x="490" y="500" as="sourcePoint" />
            <mxPoint x="320" y="499.5" as="targetPoint" />
          </mxGeometry>
        </mxCell>
        <mxCell id="N1mBAuWXCPxK_z9myF4u-56" value="Save" style="edgeLabel;html=1;align=center;verticalAlign=middle;resizable=0;points=[];fontSize=15;" parent="N1mBAuWXCPxK_z9myF4u-55" vertex="1" connectable="0">
          <mxGeometry x="-0.0204" y="2" relative="1" as="geometry">
            <mxPoint x="-5" y="-2" as="offset" />
          </mxGeometry>
        </mxCell>
        <mxCell id="N1mBAuWXCPxK_z9myF4u-58" value="user 1" style="shape=actor;html=1;fontSize=16;labelPosition=center;verticalLabelPosition=bottom;align=center;verticalAlign=top;" parent="1" vertex="1">
          <mxGeometry x="710" y="190" width="40" height="60" as="geometry" />
        </mxCell>
        <mxCell id="N1mBAuWXCPxK_z9myF4u-60" value="user 2" style="shape=actor;html=1;fontSize=16;labelPosition=center;verticalLabelPosition=bottom;align=center;verticalAlign=top;" parent="1" vertex="1">
          <mxGeometry x="710" y="410" width="40" height="60" as="geometry" />
        </mxCell>
        <mxCell id="N1mBAuWXCPxK_z9myF4u-62" value="" style="endArrow=classic;html=1;rounded=0;exitX=1;exitY=0.5;exitDx=0;exitDy=0;entryX=0.06;entryY=0.5;entryDx=0;entryDy=0;entryPerimeter=0;" parent="1" target="N1mBAuWXCPxK_z9myF4u-19" edge="1">
          <mxGeometry width="50" height="50" relative="1" as="geometry">
            <mxPoint x="110" y="400.25" as="sourcePoint" />
            <mxPoint x="220" y="400" as="targetPoint" />
          </mxGeometry>
        </mxCell>
        <mxCell id="N1mBAuWXCPxK_z9myF4u-63" value="" style="endArrow=classic;html=1;rounded=0;exitX=1;exitY=0.5;exitDx=0;exitDy=0;entryX=0;entryY=0.75;entryDx=0;entryDy=0;" parent="1" target="N1mBAuWXCPxK_z9myF4u-58" edge="1">
          <mxGeometry width="50" height="50" relative="1" as="geometry">
            <mxPoint x="555" y="191" as="sourcePoint" />
            <mxPoint x="669" y="191" as="targetPoint" />
          </mxGeometry>
        </mxCell>
        <mxCell id="N1mBAuWXCPxK_z9myF4u-69" value="Query" style="edgeLabel;html=1;align=center;verticalAlign=middle;resizable=0;points=[];" parent="N1mBAuWXCPxK_z9myF4u-63" vertex="1" connectable="0">
          <mxGeometry x="-0.0161" y="3" relative="1" as="geometry">
            <mxPoint as="offset" />
          </mxGeometry>
        </mxCell>
        <mxCell id="N1mBAuWXCPxK_z9myF4u-64" value="" style="endArrow=classic;html=1;rounded=0;exitX=1;exitY=0.5;exitDx=0;exitDy=0;entryX=0;entryY=0.75;entryDx=0;entryDy=0;" parent="1" source="N1mBAuWXCPxK_z9myF4u-33" target="N1mBAuWXCPxK_z9myF4u-58" edge="1">
          <mxGeometry width="50" height="50" relative="1" as="geometry">
            <mxPoint x="550" y="600" as="sourcePoint" />
            <mxPoint x="664" y="600" as="targetPoint" />
          </mxGeometry>
        </mxCell>
        <mxCell id="N1mBAuWXCPxK_z9myF4u-68" value="Query" style="edgeLabel;html=1;align=center;verticalAlign=middle;resizable=0;points=[];" parent="N1mBAuWXCPxK_z9myF4u-64" vertex="1" connectable="0">
          <mxGeometry x="0.0492" y="1" relative="1" as="geometry">
            <mxPoint as="offset" />
          </mxGeometry>
        </mxCell>
        <mxCell id="N1mBAuWXCPxK_z9myF4u-65" value="" style="endArrow=classic;html=1;rounded=0;exitX=1;exitY=0.5;exitDx=0;exitDy=0;entryX=0;entryY=0.75;entryDx=0;entryDy=0;" parent="1" source="N1mBAuWXCPxK_z9myF4u-34" target="N1mBAuWXCPxK_z9myF4u-60" edge="1">
          <mxGeometry width="50" height="50" relative="1" as="geometry">
            <mxPoint x="670" y="320" as="sourcePoint" />
            <mxPoint x="825" y="364" as="targetPoint" />
          </mxGeometry>
        </mxCell>
        <mxCell id="N1mBAuWXCPxK_z9myF4u-70" value="Query" style="edgeLabel;html=1;align=center;verticalAlign=middle;resizable=0;points=[];" parent="N1mBAuWXCPxK_z9myF4u-65" vertex="1" connectable="0">
          <mxGeometry x="0.0111" y="2" relative="1" as="geometry">
            <mxPoint as="offset" />
          </mxGeometry>
        </mxCell>
        <mxCell id="N1mBAuWXCPxK_z9myF4u-67" value="" style="endArrow=classic;html=1;rounded=0;exitX=1;exitY=0.5;exitDx=0;exitDy=0;entryX=0;entryY=0.75;entryDx=0;entryDy=0;" parent="1" source="N1mBAuWXCPxK_z9myF4u-35" target="N1mBAuWXCPxK_z9myF4u-60" edge="1">
          <mxGeometry width="50" height="50" relative="1" as="geometry">
            <mxPoint x="530" y="717" as="sourcePoint" />
            <mxPoint x="685" y="660" as="targetPoint" />
          </mxGeometry>
        </mxCell>
        <mxCell id="N1mBAuWXCPxK_z9myF4u-71" value="Query" style="edgeLabel;html=1;align=center;verticalAlign=middle;resizable=0;points=[];" parent="N1mBAuWXCPxK_z9myF4u-67" vertex="1" connectable="0">
          <mxGeometry x="0.023" y="1" relative="1" as="geometry">
            <mxPoint as="offset" />
          </mxGeometry>
        </mxCell>
      </root>
    </mxGraphModel>
  </diagram>
</mxfile>
